<?xml version="1.0" standalone="no"?><!DOCTYPE svg PUBLIC "-//W3C//DTD SVG 1.1//EN" "http://www.w3.org/Graphics/SVG/1.1/DTD/svg11.dtd"><svg t="1713269437692" class="icon" viewBox="0 0 1024 1024" version="1.1" xmlns="http://www.w3.org/2000/svg" p-id="1836" xmlns:xlink="http://www.w3.org/1999/xlink" width="200" height="200"><path d="M963.212241 603.817601c-14.774254 110.221079-45.580146 169.101728-120.3373 287.05898-17.121642 27.029659-50.242262 74.761237-98.545377 93.030037-34.86381 13.182113-35.872167-3.5517-66.277981 7.740256-45.759772 16.991005-80.85628 32.353126-136.328113 32.353126-36.688649 0-72.095421-33.586015-105.489563-25.890666-163.321031 37.631687-336.876671-226.173867-336.876671-425.612009 0-233.501799 151.371807-354.28 426.710178-367.984662 266.09987-13.243349 468.469185 165.803138 437.144827 399.304938z" fill="#FF6363" p-id="1837"></path><path d="M906.732052 551.407577c0 184.492426-161.149187 269.275988-394.793871 334.059807-210.113653 58.251957-394.797953-149.56738-394.797952-334.059807S293.896482 217.351854 511.938181 217.351854c218.037617 0 394.79387 149.563297 394.793871 334.055723z" fill="#FF7D7D" p-id="1838"></path><path d="M727.391631 418.247417c19.513936 126.228222-93.08719 198.772709-242.266741 221.842427-149.175468 23.065636-278.432841-12.083944-297.954942-138.308084-19.518018-126.22414 85.591879-247.251368 234.767348-270.321086 149.179551-23.065636 285.936317 60.562603 305.454335 186.786743z" fill="#FF9191" p-id="1839"></path><path d="M352.470949 285.924151s78.394585 11.712444 97.594175 30.916117c19.19959 19.19959 81.570702 0.269439 118.185868-13.280091 69.274473-25.629391 69.486759-25.862089 102.403258-25.862089s-142.635442-71.319762-318.183301 8.226063z" fill="#DB5555" p-id="1840"></path><path d="M59.504716 171.685977s111.225353 98.365751 248.129087 16.25617c136.895569-82.113663 140.733037-91.388906 206.10064 13.647508l3.241437-40.064805S440.700068-21.640792 317.431595 2.131101C190.86045 26.539851 180.560521 158.891694 59.504716 171.685977z" fill="#85CC85" p-id="1841"></path><path d="M243.446017 93.883343C166.831365 171.898263 57.5819 171.228747 57.5819 171.228747s111.225353 98.369833 248.120921 16.25617c136.899651-82.109581 140.741202-91.380742 206.100641 13.655673l3.249601-40.068888C435.874655 10.414318 320.056587 15.86434 243.446017 93.883343z" fill="#78B878" p-id="1842"></path><path d="M504.010135 189.820058s2.951585 26.131528-11.981884 51.320018c-14.925303 25.192573-32.64706 79.309045-32.64706 79.309046s17.721757 5.596989 37.317341 5.596988c0 0-22.392038-73.703892 110.098607-141.810794l-23.731069-35.986474s-33.512532 46.841611-63.440704 16.921603l-15.615231 24.649613z" fill="#8B5C29" p-id="1843"></path><path d="M608.654637 183.267784c-5.866428 3.931364-16.027555-0.94712-22.669641-10.887796-6.650251-9.944759-7.287108-21.187726-1.416598-25.115008 5.878675-3.927282 16.031637 0.94712 22.685972 10.891879 6.642087 9.944759 7.278943 21.187726 1.400267 25.110925z" fill="#5A3D1C" p-id="1844"></path><path d="M516.571721 212.995918s27.842059-21.571472 51.928298-43.653246c0 0-31.610127 23.330993-49.670724 23.330993-18.064679 0.004082 3.008739 8.283217-2.257574 20.322253z" fill="#E4BC96" p-id="1845"></path><path d="M579.216354 181.573583s-25.960067 16.929768-45.151492 36.125276c0.004082 0 37.648016-28.617718 45.151492-36.125276z" fill="#5A3D1C" p-id="1846"></path><path d="M474.751478 324.008986s1.930982-65.853411 48.592967-102.733933c0 0-36.223254 43.649164-48.592967 102.733933z" fill="#E4BC96" p-id="1847"></path><path d="M456.490843 416.745089c0 28.1809-22.849268 51.030168-51.030168 51.030167s-51.030168-22.849268-51.030167-51.030167 22.849268-34.700514 51.030167-34.700514 51.030168 6.519614 51.030168 34.700514z" fill="#FFFFFF" opacity=".54" p-id="1848"></path></svg>